<svg id="visual" viewBox="0 0 900 600" width="900" height="600" xmlns="http://www.w3.org/2000/svg" xmlns:xlink="http://www.w3.org/1999/xlink" version="1.1"><rect x="0" y="0" width="900" height="600" fill="#140021"></rect><path d="M0 205L129 205L129 132L257 132L257 152L386 152L386 267L514 267L514 174L643 174L643 165L771 165L771 245L900 245L900 246L900 601L900 601L771 601L771 601L643 601L643 601L514 601L514 601L386 601L386 601L257 601L257 601L129 601L129 601L0 601Z" fill="#0e40c4"></path><path d="M0 317L129 317L129 234L257 234L257 281L386 281L386 336L514 336L514 224L643 224L643 294L771 294L771 305L900 305L900 304L900 601L900 601L771 601L771 601L643 601L643 601L514 601L514 601L386 601L386 601L257 601L257 601L129 601L129 601L0 601Z" fill="#4921a4"></path><path d="M0 382L129 382L129 349L257 349L257 347L386 347L386 398L514 398L514 311L643 311L643 386L771 386L771 329L900 329L900 304L900 601L900 601L771 601L771 601L643 601L643 601L514 601L514 601L386 601L386 601L257 601L257 601L129 601L129 601L0 601Z" fill="#560090"></path><path d="M0 426L129 426L129 481L257 481L257 391L386 391L386 483L514 483L514 392L643 392L643 445L771 445L771 479L900 479L900 409L900 601L900 601L771 601L771 601L643 601L643 601L514 601L514 601L386 601L386 601L257 601L257 601L129 601L129 601L0 601Z" fill="#4921a4"></path><path d="M0 529L129 529L129 465L257 465L257 496L386 496L386 475L514 475L514 517L643 517L643 491L771 491L771 498L900 498L900 548L900 601L900 601L771 601L771 601L643 601L643 601L514 601L514 601L386 601L386 601L257 601L257 601L129 601L129 601L0 601Z" fill="#0e40c4"></path></svg>