<svg id="visual" viewBox="0 0 900 600" width="900" height="600" xmlns="http://www.w3.org/2000/svg" xmlns:xlink="http://www.w3.org/1999/xlink" version="1.1"><path d="M0 103L10 105C20 107 40 111 60 117C80 123 100 131 120 135C140 139 160 139 180 138C200 137 220 135 240 128C260 121 280 109 300 114C320 119 340 141 360 167C380 193 400 223 420 230C440 237 460 221 480 213C500 205 520 205 540 203C560 201 580 197 600 200C620 203 640 213 660 203C680 193 700 163 720 152C740 141 760 149 780 146C800 143 820 129 840 126C860 123 880 131 890 135L900 139L900 0L890 0C880 0 860 0 840 0C820 0 800 0 780 0C760 0 740 0 720 0C700 0 680 0 660 0C640 0 620 0 600 0C580 0 560 0 540 0C520 0 500 0 480 0C460 0 440 0 420 0C400 0 380 0 360 0C340 0 320 0 300 0C280 0 260 0 240 0C220 0 200 0 180 0C160 0 140 0 120 0C100 0 80 0 60 0C40 0 20 0 10 0L0 0Z" fill="#6198ff"></path><path d="M0 151L10 156C20 161 40 171 60 182C80 193 100 205 120 206C140 207 160 197 180 192C200 187 220 187 240 185C260 183 280 179 300 184C320 189 340 203 360 226C380 249 400 281 420 292C440 303 460 293 480 282C500 271 520 259 540 251C560 243 580 239 600 247C620 255 640 275 660 268C680 261 700 227 720 217C740 207 760 221 780 218C800 215 820 195 840 188C860 181 880 187 890 190L900 193L900 137L890 133C880 129 860 121 840 124C820 127 800 141 780 144C760 147 740 139 720 150C700 161 680 191 660 201C640 211 620 201 600 198C580 195 560 199 540 201C520 203 500 203 480 211C460 219 440 235 420 228C400 221 380 191 360 165C340 139 320 117 300 112C280 107 260 119 240 126C220 133 200 135 180 136C160 137 140 137 120 133C100 129 80 121 60 115C40 109 20 105 10 103L0 101Z" fill="#4385ff"></path><path d="M0 223L10 229C20 235 40 247 60 263C80 279 100 299 120 302C140 305 160 291 180 278C200 265 220 253 240 247C260 241 280 241 300 252C320 263 340 285 360 308C380 331 400 355 420 358C440 361 460 343 480 329C500 315 520 305 540 300C560 295 580 295 600 302C620 309 640 323 660 319C680 315 700 293 720 292C740 291 760 311 780 304C800 297 820 263 840 250C860 237 880 245 890 249L900 253L900 191L890 188C880 185 860 179 840 186C820 193 800 213 780 216C760 219 740 205 720 215C700 225 680 259 660 266C640 273 620 253 600 245C580 237 560 241 540 249C520 257 500 269 480 280C460 291 440 301 420 290C400 279 380 247 360 224C340 201 320 187 300 182C280 177 260 181 240 183C220 185 200 185 180 190C160 195 140 205 120 204C100 203 80 191 60 180C40 169 20 159 10 154L0 149Z" fill="#2071ff"></path><path d="M0 259L10 266C20 273 40 287 60 303C80 319 100 337 120 345C140 353 160 351 180 342C200 333 220 317 240 308C260 299 280 297 300 309C320 321 340 347 360 367C380 387 400 401 420 403C440 405 460 395 480 381C500 367 520 349 540 347C560 345 580 359 600 369C620 379 640 385 660 374C680 363 700 335 720 334C740 333 760 359 780 353C800 347 820 309 840 298C860 287 880 303 890 311L900 319L900 251L890 247C880 243 860 235 840 248C820 261 800 295 780 302C760 309 740 289 720 290C700 291 680 313 660 317C640 321 620 307 600 300C580 293 560 293 540 298C520 303 500 313 480 327C460 341 440 359 420 356C400 353 380 329 360 306C340 283 320 261 300 250C280 239 260 239 240 245C220 251 200 263 180 276C160 289 140 303 120 300C100 297 80 277 60 261C40 245 20 233 10 227L0 221Z" fill="#0061f1"></path><path d="M0 397L10 396C20 395 40 393 60 400C80 407 100 423 120 436C140 449 160 459 180 453C200 447 220 425 240 418C260 411 280 419 300 427C320 435 340 443 360 453C380 463 400 475 420 481C440 487 460 487 480 482C500 477 520 467 540 469C560 471 580 485 600 485C620 485 640 471 660 457C680 443 700 429 720 436C740 443 760 471 780 464C800 457 820 415 840 402C860 389 880 405 890 413L900 421L900 317L890 309C880 301 860 285 840 296C820 307 800 345 780 351C760 357 740 331 720 332C700 333 680 361 660 372C640 383 620 377 600 367C580 357 560 343 540 345C520 347 500 365 480 379C460 393 440 403 420 401C400 399 380 385 360 365C340 345 320 319 300 307C280 295 260 297 240 306C220 315 200 331 180 340C160 349 140 351 120 343C100 335 80 317 60 301C40 285 20 271 10 264L0 257Z" fill="#0056d6"></path><path d="M0 601L10 601C20 601 40 601 60 601C80 601 100 601 120 601C140 601 160 601 180 601C200 601 220 601 240 601C260 601 280 601 300 601C320 601 340 601 360 601C380 601 400 601 420 601C440 601 460 601 480 601C500 601 520 601 540 601C560 601 580 601 600 601C620 601 640 601 660 601C680 601 700 601 720 601C740 601 760 601 780 601C800 601 820 601 840 601C860 601 880 601 890 601L900 601L900 419L890 411C880 403 860 387 840 400C820 413 800 455 780 462C760 469 740 441 720 434C700 427 680 441 660 455C640 469 620 483 600 483C580 483 560 469 540 467C520 465 500 475 480 480C460 485 440 485 420 479C400 473 380 461 360 451C340 441 320 433 300 425C280 417 260 409 240 416C220 423 200 445 180 451C160 457 140 447 120 434C100 421 80 405 60 398C40 391 20 393 10 394L0 395Z" fill="#004cbb"></path></svg>